<svg width="22" height="22" viewBox="0 0 22 22" fill="none" xmlns="http://www.w3.org/2000/svg">
<path fill-rule="evenodd" clip-rule="evenodd" d="M5.5 11C5.5 10.8177 5.57243 10.6428 5.70136 10.5139C5.8303 10.3849 6.00516 10.3125 6.1875 10.3125H14.1529L11.2007 7.36175C11.0717 7.23265 10.9991 7.05757 10.9991 6.875C10.9991 6.69243 11.0717 6.51734 11.2007 6.38825C11.3298 6.25915 11.5049 6.18663 11.6875 6.18663C11.8701 6.18663 12.0452 6.25915 12.1743 6.38825L16.2992 10.5132C16.3633 10.5771 16.4141 10.653 16.4487 10.7365C16.4834 10.82 16.5012 10.9096 16.5012 11C16.5012 11.0904 16.4834 11.18 16.4487 11.2635C16.4141 11.347 16.3633 11.4229 16.2992 11.4867L12.1743 15.6117C12.0452 15.7408 11.8701 15.8134 11.6875 15.8134C11.5049 15.8134 11.3298 15.7408 11.2007 15.6117C11.0717 15.4827 10.9991 15.3076 10.9991 15.125C10.9991 14.9424 11.0717 14.7673 11.2007 14.6382L14.1529 11.6875H6.1875C6.00516 11.6875 5.8303 11.6151 5.70136 11.4861C5.57243 11.3572 5.5 11.1823 5.5 11Z" fill="white"/>
</svg>
