<svg width="15" height="15" viewBox="0 0 15 15" fill="none" xmlns="http://www.w3.org/2000/svg">
<path d="M0 1.40625C0 1.28193 0.049386 1.1627 0.137294 1.07479C0.225201 0.986886 0.34443 0.9375 0.46875 0.9375H1.875C1.97956 0.937529 2.08111 0.972516 2.1635 1.0369C2.24589 1.10128 2.30438 1.19136 2.32969 1.29281L2.70938 2.8125H13.5938C13.6631 2.81254 13.7315 2.82796 13.7942 2.85764C13.8568 2.88733 13.9121 2.93053 13.956 2.98416C14 3.03778 14.0315 3.10048 14.0483 3.16774C14.0651 3.235 14.0667 3.30515 14.0531 3.37313L13.1156 8.06062C13.0951 8.16284 13.0411 8.25531 12.9622 8.32339C12.8832 8.39148 12.7838 8.4313 12.6797 8.43656L3.87 8.87906L4.13906 10.3125H12.1875C12.3118 10.3125 12.431 10.3619 12.519 10.4498C12.6069 10.5377 12.6562 10.6569 12.6562 10.7812C12.6562 10.9056 12.6069 11.0248 12.519 11.1127C12.431 11.2006 12.3118 11.25 12.1875 11.25H3.75C3.64072 11.2499 3.5349 11.2116 3.45085 11.1418C3.3668 11.0719 3.3098 10.9749 3.28969 10.8675L1.88437 3.38156L1.50937 1.875H0.46875C0.34443 1.875 0.225201 1.82561 0.137294 1.73771C0.049386 1.6498 0 1.53057 0 1.40625ZM2.90812 3.75L3.69562 7.94906L12.2681 7.51875L13.0219 3.75H2.90812ZM4.6875 11.25C4.19022 11.25 3.71331 11.4475 3.36167 11.7992C3.01004 12.1508 2.8125 12.6277 2.8125 13.125C2.8125 13.6223 3.01004 14.0992 3.36167 14.4508C3.71331 14.8025 4.19022 15 4.6875 15C5.18478 15 5.66169 14.8025 6.01333 14.4508C6.36496 14.0992 6.5625 13.6223 6.5625 13.125C6.5625 12.6277 6.36496 12.1508 6.01333 11.7992C5.66169 11.4475 5.18478 11.25 4.6875 11.25ZM11.25 11.25C10.7527 11.25 10.2758 11.4475 9.92418 11.7992C9.57254 12.1508 9.375 12.6277 9.375 13.125C9.375 13.6223 9.57254 14.0992 9.92418 14.4508C10.2758 14.8025 10.7527 15 11.25 15C11.7473 15 12.2242 14.8025 12.5758 14.4508C12.9275 14.0992 13.125 13.6223 13.125 13.125C13.125 12.6277 12.9275 12.1508 12.5758 11.7992C12.2242 11.4475 11.7473 11.25 11.25 11.25ZM4.6875 12.1875C4.93614 12.1875 5.1746 12.2863 5.35041 12.4621C5.52623 12.6379 5.625 12.8764 5.625 13.125C5.625 13.3736 5.52623 13.6121 5.35041 13.7879C5.1746 13.9637 4.93614 14.0625 4.6875 14.0625C4.43886 14.0625 4.2004 13.9637 4.02459 13.7879C3.84877 13.6121 3.75 13.3736 3.75 13.125C3.75 12.8764 3.84877 12.6379 4.02459 12.4621C4.2004 12.2863 4.43886 12.1875 4.6875 12.1875ZM11.25 12.1875C11.4986 12.1875 11.7371 12.2863 11.9129 12.4621C12.0887 12.6379 12.1875 12.8764 12.1875 13.125C12.1875 13.3736 12.0887 13.6121 11.9129 13.7879C11.7371 13.9637 11.4986 14.0625 11.25 14.0625C11.0014 14.0625 10.7629 13.9637 10.5871 13.7879C10.4113 13.6121 10.3125 13.3736 10.3125 13.125C10.3125 12.8764 10.4113 12.6379 10.5871 12.4621C10.7629 12.2863 11.0014 12.1875 11.25 12.1875Z" fill="#FFFDFD"/>
</svg>
